<?xml version="1.0" encoding="UTF-8"?>
<svg version="1.1" xmlns="http://www.w3.org/2000/svg" width="406" height="202">
<path d="M0 0 C1.03769531 -0.01160156 2.07539063 -0.02320312 3.14453125 -0.03515625 C20.18556557 0.02850888 34.7308461 6.09681318 47.125 17.625 C59.82711936 30.84793519 62.5 48.74140298 62.5 66.375 C49.63 66.375 36.76 66.375 23.5 66.375 C22.84 61.425 22.18 56.475 21.5 51.375 C18.99412675 43.598152 16.68832917 39.19968711 9.8125 34.5625 C2.98651679 32.11544942 -3.82479649 32.84313381 -10.53515625 35.4140625 C-17.79119793 38.96274293 -20.82551273 46.69649694 -23.41015625 53.91796875 C-31.30739366 81.41940354 -33.51006706 127.83389989 -20.12890625 154.0625 C-18.9853198 155.87668813 -17.75306714 157.63462898 -16.5 159.375 C-16.5 160.035 -16.5 160.695 -16.5 161.375 C-8.05375191 165.83058959 0.28910474 167.63541708 9.6875 165.5625 C15.43970613 163.77082924 18.1683266 162.42280679 21.09375 157.1015625 C24.18728455 150.74641001 24.27755306 144.71608972 24.3125 137.75 C24.33763672 136.55503906 24.36277344 135.36007813 24.38867188 134.12890625 C24.4470243 131.21128501 24.47650131 128.2931101 24.5 125.375 C16.91 125.375 9.32 125.375 1.5 125.375 C1.5 115.145 1.5 104.915 1.5 94.375 C21.63 94.375 41.76 94.375 62.5 94.375 C62.5825 104.15125 62.665 113.9275 62.75 124 C62.78641602 127.05717285 62.82283203 130.1143457 62.86035156 133.26416016 C62.87205148 135.73078716 62.8822402 138.19742199 62.890625 140.6640625 C62.91108887 141.90953857 62.93155273 143.15501465 62.95263672 144.43823242 C62.95876567 160.11915233 58.45401121 173.18147085 47.6875 184.6875 C33.142767 198.36514315 14.66823229 201.00567845 -4.453125 200.6875 C-19.45935333 200.12511793 -33.26237979 195.24613322 -44.30859375 184.8125 C-61.51498758 165.67383734 -65.59588132 140.08096207 -65.73828125 115.19921875 C-65.74235678 114.52635141 -65.7464323 113.85348408 -65.75063133 113.16022682 C-65.77138089 109.59046376 -65.78572361 106.02073773 -65.79516602 102.45092773 C-65.80396981 99.54478632 -65.82472493 96.6391318 -65.85668945 93.7331543 C-66.14919932 66.53124517 -65.35139343 38.91153278 -46 17.625 C-45.175 16.8825 -44.35 16.14 -43.5 15.375 C-43.02433594 14.90707031 -42.54867188 14.43914063 -42.05859375 13.95703125 C-30.50276351 3.12518074 -15.38303407 -0.17198423 0 0 Z " fill="#4BA4A6" transform="translate(337.5,1.625)"/>
<path d="M0 0 C85.4797136 0 85.4797136 0 100 13 C100.66515625 13.55042969 101.3303125 14.10085937 102.015625 14.66796875 C114.75174659 26.06728368 119.27999357 45.16450074 120.203125 61.62109375 C120.41764791 79.08683439 118.06927137 96.52597169 105.64257812 109.76245117 C86.71942891 128.50172921 62.38286627 126 37 126 C37 148.44 37 170.88 37 194 C13 195 13 195 0 194 C0 129.98 0 65.96 0 0 Z M37 33 C37 52.8 37 72.6 37 93 C58.88817668 95.2964654 58.88817668 95.2964654 74.6875 87.6875 C80.80632513 80.57643296 81.20008254 73.8102246 81.25 64.875 C81.270625 63.97523437 81.29125 63.07546875 81.3125 62.1484375 C81.35840341 54.1612442 80.11313503 45.43876263 75 39 C64.40977146 30.17480955 49.80562495 33 37 33 Z " fill="#4BA4A6" transform="translate(136,5)"/>
<path d="M0 0 C11.55 0 23.1 0 35 0 C35.0679133 18.25544303 35.12309554 36.51078262 35.15543652 54.76632023 C35.17085703 63.2440807 35.19185358 71.72175668 35.22631836 80.19946289 C35.25636912 87.59497353 35.27560993 94.99042293 35.28226548 102.38599294 C35.2861514 106.29614854 35.29518132 110.20612904 35.31719017 114.1162281 C35.33780414 117.80900946 35.3437845 121.50154637 35.33932304 125.19437981 C35.34052065 127.17034935 35.35653068 129.1462933 35.3732605 131.12219238 C35.31354026 148.7230367 31.52774097 167.8846038 19 181 C18.40574219 181.62261719 17.81148438 182.24523437 17.19921875 182.88671875 C6.34808079 193.24360197 -7.35812303 196.84998077 -22 197 C-37.44301225 196.13133056 -50.87927235 192.10222718 -61.92578125 181.078125 C-72.21839817 169.35291686 -73 153.85099068 -73 139 C-60.13 139 -47.26 139 -34 139 C-33.01 146.425 -33.01 146.425 -32 154 C-29.27408059 160.01856525 -29.27408059 160.01856525 -24.02734375 162.59375 C-18.84622371 163.63197059 -14.43723399 162.65082294 -9.6875 160.5 C-2.73410917 154.03172946 -1.35767986 143.91146353 -0.80637741 134.79995155 C-0.71618547 131.22655159 -0.68732545 127.6577847 -0.68115234 124.08325195 C-0.67183144 122.7220349 -0.66165964 121.36082346 -0.65071106 119.99961853 C-0.62364028 116.33924142 -0.60833052 112.67890227 -0.59528303 109.01845193 C-0.57955103 105.18007872 -0.55279347 101.34178195 -0.5272522 97.50346375 C-0.48064135 90.25066896 -0.44381217 82.99785951 -0.41057932 75.74499243 C-0.37223217 67.4812437 -0.32285541 59.21757206 -0.27259517 50.95388854 C-0.16953877 33.96930936 -0.08164922 16.98469763 0 0 Z " fill="#4BA4A7" transform="translate(76,5)"/>
<path d="M0 0 C85.4797136 0 85.4797136 0 100 13 C100.66515625 13.55042969 101.3303125 14.10085937 102.015625 14.66796875 C112.40938547 23.97078108 116.66176127 37.63863581 119 51 C119.05628401 52.99920787 119.07710313 55.00148678 119 57 C118.01 57.495 118.01 57.495 117 58 C116.91548584 57.43716309 116.83097168 56.87432617 116.74389648 56.29443359 C114.32445088 40.74470264 111.14305315 26.11778217 99 15 C98.01 14.505 98.01 14.505 97 14 C97 13.34 97 12.68 97 12 C96.28972656 11.7215625 95.57945312 11.443125 94.84765625 11.15625 C92.98631987 10.40048105 91.13862788 9.6099447 89.30859375 8.78125 C87.88740234 8.14703125 87.88740234 8.14703125 86.4375 7.5 C85.50808594 7.0771875 84.57867187 6.654375 83.62109375 6.21875 C59.82392874 -1.79065182 18.21181059 2.24563349 2 2 C2 64.7 2 127.4 2 192 C12.56 192 23.12 192 34 192 C34.33 170.22 34.66 148.44 35 126 C35.99 126.495 35.99 126.495 37 127 C37 149.11 37 171.22 37 194 C13 195 13 195 0 194 C0 129.98 0 65.96 0 0 Z " fill="#2E8485" transform="translate(136,5)"/>
<path d="M0 0 C11.55 0 23.1 0 35 0 C35.0679133 18.25544303 35.12309554 36.51078262 35.15543652 54.76632023 C35.17085703 63.2440807 35.19185358 71.72175668 35.22631836 80.19946289 C35.25636912 87.59497353 35.27560993 94.99042293 35.28226548 102.38599294 C35.2861514 106.29614854 35.29518132 110.20612904 35.31719017 114.1162281 C35.33780414 117.80900946 35.3437845 121.50154637 35.33932304 125.19437981 C35.34052065 127.17034935 35.35653068 129.1462933 35.3732605 131.12219238 C35.33350697 142.83841765 33.55795902 154.222317 29.125 165.125 C28.65320313 166.32382813 28.18140625 167.52265625 27.6953125 168.7578125 C25.89341568 172.20383637 23.87895528 174.41381984 21 177 C22.09708161 174.22317622 23.22770243 171.46784863 24.40234375 168.72265625 C24.90894531 167.51480469 25.41554688 166.30695313 25.9375 165.0625 C26.44152344 163.87785156 26.94554688 162.69320312 27.46484375 161.47265625 C31.45077884 150.72602241 32.44524053 139.83767052 32.43237305 128.46728516 C32.44141893 127.07606656 32.45175291 125.68485584 32.46325684 124.2936554 C32.490522 120.56524262 32.50006917 116.83698226 32.50611091 113.10848284 C32.51557517 109.19403732 32.54178414 105.27970217 32.56611633 101.36532593 C32.60956575 93.974502 32.63824442 86.58369976 32.66143972 79.19278753 C32.6886079 70.76934237 32.73251157 62.34600944 32.77772844 53.92264485 C32.87026551 36.61514199 32.93987862 19.30765044 33 2 C22.77 2 12.54 2 2 2 C2.00523682 6.11871582 2.01047363 10.23743164 2.01586914 14.48095703 C2.03242884 28.07959316 2.04353171 41.67822914 2.05181217 55.27687263 C2.05696681 63.52280313 2.06399366 71.76872407 2.07543945 80.01464844 C2.0854117 87.20241708 2.09185949 94.3901788 2.09408849 101.57795417 C2.09539128 105.38323758 2.09844982 109.18850118 2.10573006 112.99377823 C2.11253034 116.57731156 2.1146088 120.16081698 2.11310768 123.74435616 C2.11351285 125.68266786 2.11888714 127.62097654 2.12442017 129.5592804 C2.1230455 130.72026749 2.12167084 131.88125458 2.12025452 133.0774231 C2.12117631 134.08217745 2.1220981 135.0869318 2.12304783 136.12213326 C1.99357819 139.15019467 1.55742607 142.02337432 1 145 C0.34 145 -0.32 145 -1 145 C-0.67 97.15 -0.34 49.3 0 0 Z " fill="#3E8888" transform="translate(76,5)"/>
<path d="M0 0 C1.06927734 -0.020625 2.13855469 -0.04125 3.24023438 -0.0625 C20.44982076 -0.14568833 35.0374637 5.85007541 47.5625 17.5 C60.26461936 30.72293519 62.9375 48.61640298 62.9375 66.25 C50.0675 66.25 37.1975 66.25 23.9375 66.25 C22.9475 58.825 22.9475 58.825 21.9375 51.25 C19.79647527 44.67926893 17.65857197 40.23335374 12.9375 35.25 C15.9375 35.25 15.9375 35.25 18.375 37.5625 C24.34877487 45.14251645 25.9375 54.90546287 25.9375 64.25 C37.4875 64.25 49.0375 64.25 60.9375 64.25 C59.9475 58.805 59.9475 58.805 58.9375 53.25 C58.63579851 51.06386142 58.34219769 48.87656256 58.0625 46.6875 C56.05114556 33.59822419 49.98557728 21.90339889 39.8359375 13.29296875 C26.57242733 3.94416037 11.93673178 2.91128391 -3.8125 3.125 C-5.09382813 3.13402344 -6.37515625 3.14304687 -7.6953125 3.15234375 C-10.81791221 3.17564673 -13.94010025 3.20835946 -17.0625 3.25 C-17.0625 2.59 -17.0625 1.93 -17.0625 1.25 C-11.37198566 -0.03734746 -5.81103651 0.02732998 0 0 Z " fill="#368A8D" transform="translate(337.0625,1.75)"/>
<path d="M0 0 C20.13 0 40.26 0 61 0 C61.020625 9.9825 61.04125 19.965 61.0625 30.25 C61.071604 33.39821289 61.08070801 36.54642578 61.09008789 39.79003906 C61.09300816 42.28190061 61.09555646 44.77376263 61.09765625 47.265625 C61.10277222 48.56226074 61.10788818 49.85889648 61.11315918 51.19482422 C61.11334045 53.05179932 61.11334045 53.05179932 61.11352539 54.94628906 C61.115746 56.02106506 61.11796661 57.09584106 61.12025452 58.20318604 C61.01524382 60.64546747 60.70765164 62.67184517 60 65 C59.34 65 58.68 65 58 65 C58.33 44.21 58.66 23.42 59 2 C40.19 2 21.38 2 2 2 C2 10.91 2 19.82 2 29 C8.93 29 15.86 29 23 29 C22.67 29.66 22.34 30.32 22 31 C14.74 31 7.48 31 0 31 C0 20.77 0 10.54 0 0 Z " fill="#348B8D" transform="translate(339,96)"/>
<path d="M0 0 C6.37768824 0.14877412 6.37768824 0.14877412 9.33935547 0.25537109 C11.33354492 0.32274236 13.32871762 0.35862854 15.32373047 0.39404297 C22.69011886 0.63263045 27.96894478 1.22686482 34.23779297 5.19873047 C33.57779297 5.85873047 32.91779297 6.51873047 32.23779297 7.19873047 C31.37154297 6.72435547 30.50529297 6.24998047 29.61279297 5.76123047 C19.8487957 1.24086136 7.23688469 2.63347359 -2.76220703 2.19873047 C-2.76220703 21.99873047 -2.76220703 41.79873047 -2.76220703 62.19873047 C19.16468564 63.51931963 19.16468564 63.51931963 34.92529297 56.07373047 C40.22532354 49.48450328 40.70004365 41.94959795 40.55029297 33.76123047 C40.55351562 32.88402344 40.55673828 32.00681641 40.56005859 31.10302734 C40.51009279 24.9390641 39.64580364 19.19426075 38.23779297 13.19873047 C38.89779297 12.86873047 39.55779297 12.53873047 40.23779297 12.19873047 C44.44400551 23.56551912 45.65444545 39.6425378 41.23779297 51.19873047 C37.73355633 58.09693056 32.48991981 61.76823397 25.23779297 64.19873047 C20.38083423 64.78982764 15.62223075 64.72066895 10.73779297 64.57373047 C9.46419922 64.55955078 8.19060547 64.54537109 6.87841797 64.53076172 C-2.39407516 64.3827964 -2.39407516 64.3827964 -4.76220703 63.19873047 C-4.80849649 55.27987469 -4.84405885 47.36107521 -4.86583138 39.44211769 C-4.87627977 35.76523697 -4.89045805 32.08844864 -4.91308594 28.41162109 C-4.93477694 24.86493392 -4.9467677 21.31833575 -4.95196152 17.77158737 C-4.95566404 16.41675795 -4.96289392 15.06193353 -4.97366714 13.70714188 C-4.98813151 11.8132729 -4.98902352 9.91931482 -4.98925781 8.02539062 C-4.99591965 6.40656479 -4.99591965 6.40656479 -5.00271606 4.7550354 C-4.65333279 1.04153589 -3.69141426 0.26558345 0 0 Z " fill="#388889" transform="translate(175.76220703125,35.80126953125)"/>
<path d="M0 0 C12.87 0 25.74 0 39 0 C39.66 4.95 40.32 9.9 41 15 C43.72591941 21.01856525 43.72591941 21.01856525 48.97265625 23.59375 C54.15377629 24.63197059 58.56276601 23.65082294 63.3125 21.5 C66.93605244 18.12925354 68.24190113 14.53909162 70 10 C70.65193471 8.65940187 71.31415093 7.32356839 72 6 C72.82257356 8.86134482 73.19071639 10.4835853 72.14453125 13.31640625 C68.35552337 19.70549579 65.37904529 24.06461306 58.15234375 26.52734375 C53.53080278 27.5422375 49.55752326 26.70796512 45.25 24.75 C39.70839652 20.43986396 38.41066996 16.56638779 37.296875 9.81640625 C36.98863052 6.89213954 37 3.94046772 37 1 C19.675 1.495 19.675 1.495 2 2 C3.89653857 23.38259365 3.89653857 23.38259365 14 42 C17.44268543 44.82462852 21.04738157 46.96380263 25 49 C25.77085938 49.39960938 26.54171875 49.79921875 27.3359375 50.2109375 C35.10308329 53.73663849 43.63507504 54.71906021 52 56 C51.505 56.99 51.505 56.99 51 58 C34.59186259 56.46030083 20.48633477 52.80027858 9.25 40 C0.62002149 28.31942443 0 13.94952475 0 0 Z " fill="#388685" transform="translate(3,144)"/>
<path d="M0 0 C2.90616303 2.90616303 3.51540277 6.53217324 4.6875 10.375 C7.20685288 18.26364537 10.38281088 25.08485501 15 32 C15.65355469 33.10214844 15.65355469 33.10214844 16.3203125 34.2265625 C22.86463275 44.37613702 35.86610365 49.87381288 47.27905273 52.53051758 C52.49360006 53.43025508 57.78392161 53.22716137 63.0625 53.25 C64.80950195 53.2809375 64.80950195 53.2809375 66.59179688 53.3125 C81.5327431 53.37908918 97.46122593 49.21780577 108.5546875 38.5703125 C109.03164063 38.05210937 109.50859375 37.53390625 110 37 C110.51820313 36.44054687 111.03640625 35.88109375 111.5703125 35.3046875 C116.32766643 29.59108153 118.60136407 22.96241224 121 16 C121.66 16.33 122.32 16.66 123 17 C119.46049165 29.85400399 112.51792145 40.06748244 101.1875 47.25 C83.96158088 56.97260466 62.33745408 59.17075707 43.1875 54.375 C27.19043505 49.63880893 16.11936292 40.43039089 8.01806641 25.96777344 C3.74969709 17.71763995 0.90258922 9.2515395 0 0 Z " fill="#389393" transform="translate(275,146)"/>
<path d="M0 0 C0.66 0 1.32 0 2 0 C2.02336812 17.75895486 2.04099842 35.51790572 2.05181217 53.27687263 C2.05696681 61.52280313 2.06399366 69.76872407 2.07543945 78.01464844 C2.0854117 85.20241708 2.09185949 92.3901788 2.09408849 99.57795417 C2.09539128 103.38323758 2.09844982 107.18850118 2.10573006 110.99377823 C2.11253034 114.57731156 2.1146088 118.16081698 2.11310768 121.74435616 C2.11351285 123.68266786 2.11888714 125.62097654 2.12442017 127.5592804 C2.1230455 128.72026749 2.12167084 129.88125458 2.12025452 131.0774231 C2.12117631 132.08217745 2.1220981 133.0869318 2.12304783 134.12213326 C1.99357819 137.15019467 1.55742607 140.02337432 1 143 C0.34 143 -0.32 143 -1 143 C-0.67 95.81 -0.34 48.62 0 0 Z " fill="#2E8B8E" transform="translate(76,7)"/>
<path d="M0 0 C0 0.66 0 1.32 0 2 C-0.66644531 2.20753906 -1.33289063 2.41507812 -2.01953125 2.62890625 C-17.07083312 7.66004072 -28.04081206 16.06904185 -35.27099609 30.18017578 C-46.03511573 52.20969855 -45.45684035 77.55732919 -45.1875 101.5625 C-45.17239315 103.95376741 -45.15871559 106.34504428 -45.14648438 108.73632812 C-45.11402965 114.49109851 -45.06432731 120.24550195 -45 126 C-45.66 126 -46.32 126 -47 126 C-47.09383423 118.13132967 -47.16432688 110.26279716 -47.20724869 102.39370346 C-47.22787805 98.73736167 -47.25572588 95.08141019 -47.30175781 91.42529297 C-47.63543483 64.18480617 -46.88614205 36.57475626 -27.5 15.25 C-26.675 14.5075 -25.85 13.765 -25 13 C-24.52433594 12.53207031 -24.04867188 12.06414063 -23.55859375 11.58203125 C-17.60323069 5.99977527 -8.35316094 0 0 0 Z " fill="#39888A" transform="translate(319,4)"/>
<path d="M0 0 C0.66 0.33 1.32 0.66 2 1 C1.98952637 2.15709473 1.97905273 3.31418945 1.96826172 4.50634766 C-0.72393828 48.59320128 -0.72393828 48.59320128 13 89 C13 89.66 13 90.32 13 91 C13.5775 91.28875 14.155 91.5775 14.75 91.875 C16.83333333 92.91666667 18.91666667 93.95833333 21 95 C21 95.66 21 96.32 21 97 C17.01328937 95.63312778 14.11505367 93.84804907 11 91 C11 90.34 11 89.68 11 89 C10.34 89 9.68 89 9 89 C4.51816051 81.31178522 2.34420338 73.75859098 1 65 C0.89558594 64.3287207 0.79117187 63.65744141 0.68359375 62.96582031 C-1.03956561 51.15999747 -1.18318332 39.3432225 -1.1875 27.4375 C-1.18849701 26.70543335 -1.18949402 25.9733667 -1.19052124 25.21911621 C-1.18921831 16.76900687 -0.97526097 8.40475186 0 0 Z " fill="#398A8C" transform="translate(308,72)"/>
<path d="M0 0 C0.66 0 1.32 0 2 0 C1.28342416 12.42064793 -4.33199833 22.33899207 -13.38623047 30.64990234 C-26.96716231 42.01186197 -43.07246841 44.18734281 -60.2355957 44.18530273 C-62.32458183 44.18751278 -64.41305849 44.20578169 -66.50195312 44.22460938 C-67.81744141 44.22654297 -69.13292969 44.22847656 -70.48828125 44.23046875 C-71.69009033 44.23457764 -72.89189941 44.23868652 -74.13012695 44.24291992 C-77 44 -77 44 -79 42 C-78.07888428 41.98541748 -77.15776855 41.97083496 -76.20874023 41.95581055 C-72.71373973 41.89389598 -69.21941826 41.81960197 -65.72485352 41.73754883 C-64.22690363 41.70477268 -62.72884419 41.67660243 -61.23071289 41.65356445 C-43.32512879 41.37106615 -26.09140104 39.40642019 -12.4140625 26.50390625 C-5.55696099 19.21113254 -1.68430578 9.84952731 0 0 Z " fill="#398587" transform="translate(252,87)"/>
<path d="M0 0 C2.90616303 2.90616303 3.51540277 6.53217324 4.6875 10.375 C7.20685288 18.26364537 10.38281088 25.08485501 15 32 C15.65355469 33.10214844 15.65355469 33.10214844 16.3203125 34.2265625 C23.50315302 45.36641697 37.79849223 50.42816672 50.1875 53.25 C51.445625 53.4975 52.70375 53.745 54 54 C53.34 54.66 52.68 55.32 52 56 C49.41746501 55.63411547 47.07271179 55.15911392 44.5625 54.5 C43.8418335 54.31276367 43.12116699 54.12552734 42.37866211 53.93261719 C27.49927875 49.82773104 16.92784933 41.02487886 9.08203125 27.8671875 C4.19846366 19.14893237 0.97062572 9.94891367 0 0 Z " fill="#388485" transform="translate(275,146)"/>
<path d="M0 0 C0.928125 0.495 1.85625 0.99 2.8125 1.5 C2.4825 2.16 2.1525 2.82 1.8125 3.5 C0.884375 3.005 0.884375 3.005 -0.0625 2.5 C-7.4963654 0.12116307 -15.21910285 1.09199662 -22.1875 4.5 C-32.34832047 12.12061536 -33.91586357 25.8499316 -36.1875 37.5 C-36.8475 37.5 -37.5075 37.5 -38.1875 37.5 C-37.80317109 28.08394181 -36.50316835 17.47350253 -31.1875 9.5 C-30.5275 9.5 -29.8675 9.5 -29.1875 9.5 C-28.82978516 8.60861328 -28.82978516 8.60861328 -28.46484375 7.69921875 C-26.91648909 5.03339712 -25.33634853 3.96453543 -22.75 2.3125 C-21.96753906 1.80332031 -21.18507813 1.29414062 -20.37890625 0.76953125 C-14.37671937 -2.70767149 -6.32968751 -2.744159 0 0 Z " fill="#3A888A" transform="translate(347.1875,33.5)"/>
<path d="M0 0 C0.33 0 0.66 0 1 0 C1.14688806 4.12461681 1.23460044 8.24854924 1.3125 12.375 C1.35439453 13.53128906 1.39628906 14.68757812 1.43945312 15.87890625 C1.55761172 24.24453484 0.37461992 31.35459324 -5.55004883 37.64599609 C-10.05927958 41.5226344 -13.05295057 43.26431331 -19 43 C-19 42.34 -19 41.68 -19 41 C-18.40832031 40.84144531 -17.81664062 40.68289062 -17.20703125 40.51953125 C-10.60535722 38.57026045 -6.82293856 36.31971409 -3.40625 30.09765625 C-1.22941556 24.84877625 -1.46884887 19.28826634 -1.375 13.6875 C-1.32413924 11.52464621 -1.26964005 9.36187391 -1.2109375 7.19921875 C-1.18459229 5.77355591 -1.18459229 5.77355591 -1.15771484 4.3190918 C-1 2 -1 2 0 0 Z " fill="#328789" transform="translate(363,127)"/>
<path d="M0 0 C0.33 0 0.66 0 1 0 C1.7581146 9.02968642 2.10068582 17.93827631 2 27 C8.93 27 15.86 27 23 27 C22.67 27.66 22.34 28.32 22 29 C14.74 29 7.48 29 0 29 C0 19.43 0 9.86 0 0 Z " fill="#3C8285" transform="translate(339,98)"/>
<path d="M0 0 C0.33 0 0.66 0 1 0 C1.65450091 16.03527221 -0.2235595 30.05131056 -9 44 C-9.99 44.66 -10.98 45.32 -12 46 C-10.90291839 43.22317622 -9.77229757 40.46784863 -8.59765625 37.72265625 C-3.42879854 25.39894207 -0.7114065 13.3940672 0 0 Z " fill="#368889" transform="translate(109,136)"/>
<path d="M0 0 C0.66 0.33 1.32 0.66 2 1 C-1.74556886 14.602329 -9.34236288 24.73257521 -21.23828125 32.28515625 C-23 33 -23 33 -26 32 C-25.154375 31.46632812 -24.30875 30.93265625 -23.4375 30.3828125 C-11.14916751 22.41062985 -4.61055196 14.14198148 0 0 Z " fill="#378483" transform="translate(396,162)"/>
<path d="M0 0 C0.66 0.33 1.32 0.66 2 1 C-5.43067678 9.60807274 -15.69128389 16.06749788 -27 18 C-30.35300945 18.20265442 -33.64738259 18.19259717 -37 18 C-33.97281313 16.23156686 -30.97987391 15.48394929 -27.56762695 14.75805664 C-16.98148212 12.4768293 -7.17562575 8.45698749 0 0 Z " fill="#378484" transform="translate(95,183)"/>
<path d="M0 0 C0 0.66 0 1.32 0 2 C-0.66644531 2.20753906 -1.33289063 2.41507812 -2.01953125 2.62890625 C-13.34776774 6.41554754 -21.95029595 12.22400687 -30 21 C-30.66 21.66 -31.32 22.32 -32 23 C-31.02362424 16.40946362 -25.64781817 12.57255465 -20.6484375 8.77734375 C-14.7737228 4.83487297 -7.24326496 0 0 0 Z " fill="#32827E" transform="translate(319,4)"/>
<path d="M0 0 C10.6140741 -0.56215777 20.19512806 5.10028826 28 12 C34.70588235 18.11764706 34.70588235 18.11764706 36 22 C32.60459566 20.86819855 31.84642148 19.89642801 29.625 17.1875 C25.14521511 11.73607226 20.64505365 8.60001148 14.125 5.875 C12.36542969 5.12863281 12.36542969 5.12863281 10.5703125 4.3671875 C7.06341569 3.02428391 3.62231869 1.97274543 0 1 C0 0.67 0 0.34 0 0 Z " fill="#358281" transform="translate(353,4)"/>
<path d="M0 0 C7.42919277 5.234204 9.97136839 12.10626204 11.6875 20.85546875 C12.1397921 23.9593233 12.2550997 26.8750287 12 30 C11.34 30.66 10.68 31.32 10 32 C9.90203125 31.03320312 9.8040625 30.06640625 9.703125 29.0703125 C8.46042761 18.25027484 6.73070748 9.16019123 -1 1 C-0.67 0.67 -0.34 0.34 0 0 Z " fill="#388788" transform="translate(351,36)"/>
<path d="M0 0 C8.072573 -0.65601045 15.58574038 0.65631429 23 4 C23.33 4.99 23.66 5.98 24 7 C22.824375 6.566875 21.64875 6.13375 20.4375 5.6875 C13.78229344 3.44776702 6.88970177 2.27990507 0 1 C0 0.67 0 0.34 0 0 Z " fill="#368A8C" transform="translate(201,6)"/>
<path d="M0 0 C11.55 0 23.1 0 35 0 C35 0.33 35 0.66 35 1 C34.08186523 1.02505615 33.16373047 1.0501123 32.21777344 1.07592773 C28.80342975 1.1712027 25.38924797 1.27042778 21.97509766 1.37231445 C20.4989061 1.41556035 19.02266785 1.45724256 17.54638672 1.49731445 C15.42140652 1.55526846 13.29665907 1.61888946 11.171875 1.68359375 C9.8940918 1.72025146 8.61630859 1.75690918 7.29980469 1.79467773 C4.68090127 1.95763259 2.48983284 2.22946803 0 3 C0 2.01 0 1.02 0 0 Z " fill="#3CA0A4" transform="translate(5,145)"/>
<path d="M0 0 C3.8536681 1.57001293 6.08365507 4.08365507 9 7 C11.61620901 9.07055648 14.29525439 11.04694548 17 13 C16.67 13.66 16.34 14.32 16 15 C4.08927826 6.78139341 4.08927826 6.78139341 0 1 C0 0.67 0 0.34 0 0 Z " fill="#337C7D" transform="translate(289,180)"/>
<path d="M0 0 C10.23 0 20.46 0 31 0 C31 0.33 31 0.66 31 1 C29.72382813 1.06058594 28.44765625 1.12117187 27.1328125 1.18359375 C25.46352984 1.26799568 23.79425963 1.35264386 22.125 1.4375 C21.28324219 1.47681641 20.44148438 1.51613281 19.57421875 1.55664062 C18.76855469 1.59853516 17.96289062 1.64042969 17.1328125 1.68359375 C16.38918457 1.72025146 15.64555664 1.75690918 14.87939453 1.79467773 C12.91135688 1.89955865 12.91135688 1.89955865 11 3 C9.11515056 2.75378093 7.23977913 2.43111913 5.375 2.0625 C4.37210938 1.86785156 3.36921875 1.67320312 2.3359375 1.47265625 C1.17964844 1.23869141 1.17964844 1.23869141 0 1 C0 0.67 0 0.34 0 0 Z " fill="#449291" transform="translate(138,197)"/>
<path d="M0 0 C5.08345464 0.02651085 8.4172537 0.8725353 12.875 3.25 C12.545 3.91 12.215 4.57 11.875 5.25 C11.16730469 4.92 10.45960938 4.59 9.73046875 4.25 C6.63596282 3.16628794 4.44431319 3.10781989 1.1875 3.25 C-1.69921875 3.375 -1.69921875 3.375 -4.125 3.25 C-4.785 2.59 -5.445 1.93 -6.125 1.25 C-4.42830868 -0.44669132 -2.31857491 0.03790586 0 0 Z " fill="#388D8F" transform="translate(337.125,31.75)"/>
<path d="M0 0 C4.95 0 9.9 0 15 0 C15 0.66 15 1.32 15 2 C9.43842552 2.91457003 5.324335 3.32086397 0 1 C0 0.67 0 0.34 0 0 Z " fill="#398C90" transform="translate(48,168)"/>
<path d="M0 0 C4.29 0.33 8.58 0.66 13 1 C13 1.66 13 2.32 13 3 C11.58344207 3.0272415 10.16672955 3.04650467 8.75 3.0625 C7.56664062 3.07990234 7.56664062 3.07990234 6.359375 3.09765625 C4.09308998 3.00385306 2.1711105 2.63241063 0 2 C0 1.34 0 0.68 0 0 Z " fill="#3A8E8F" transform="translate(330,168)"/>
<path d="M0 0 C3.26739717 1.63369858 3.71704704 4.70894675 5 8 C5.37308631 9.32276056 5.73046415 10.65232077 6 12 C5.01 12.495 5.01 12.495 4 13 C3.34 10.69 2.68 8.38 2 6 C1.34 6 0.68 6 0 6 C0 4.02 0 2.04 0 0 Z " fill="#3C9FA0" transform="translate(274,140)"/>
<path d="M0 0 C4.51290803 3.33562767 6.68206814 5.33289301 8 11 C7.34 11 6.68 11 6 11 C4.78125 9.3203125 4.78125 9.3203125 3.5 7.125 C2.10181191 4.74637514 0.96207916 2.96207916 -1 1 C-0.67 0.67 -0.34 0.34 0 0 Z " fill="#387E7D" transform="translate(351,36)"/>
<path d="M0 0 C0.33 0 0.66 0 1 0 C1 1.65 1 3.3 1 5 C0.67 5 0.34 5 0 5 C0 3.35 0 1.7 0 0 Z " fill="#4488BB" transform="translate(174,140)"/>
<path d="" fill="#385555" transform="translate(0,0)"/>
<path d="" fill="#55AAAA" transform="translate(0,0)"/>
<path d="" fill="#2A7F7F" transform="translate(0,0)"/>
<path d="" fill="#47B8B8" transform="translate(0,0)"/>
<path d="" fill="#808080" transform="translate(0,0)"/>
<path d="" fill="#000000" transform="translate(0,0)"/>
<path d="" fill="#2D4049" transform="translate(0,0)"/>
<path d="" fill="#007F00" transform="translate(0,0)"/>
<path d="" fill="#2AAAAA" transform="translate(0,0)"/>
<path d="" fill="#FFFFFF" transform="translate(0,0)"/>
<path d="" fill="#808080" transform="translate(0,0)"/>
<path d="" fill="#FFFEFF" transform="translate(0,0)"/>
<path d="" fill="#FFFFFF" transform="translate(0,0)"/>
<path d="" fill="#FFFFFF" transform="translate(0,0)"/>
<path d="" fill="#FFFFFF" transform="translate(0,0)"/>
<path d="" fill="#FFFFFF" transform="translate(0,0)"/>
<path d="" fill="#808080" transform="translate(0,0)"/>
<path d="" fill="#FFFFFF" transform="translate(0,0)"/>
<path d="" fill="#FFFFFF" transform="translate(0,0)"/>
<path d="" fill="#FFFFFF" transform="translate(0,0)"/>
<path d="" fill="#808080" transform="translate(0,0)"/>
<path d="" fill="#FFFFFF" transform="translate(0,0)"/>
<path d="" fill="#FFFFFF" transform="translate(0,0)"/>
<path d="" fill="#FFFFFF" transform="translate(0,0)"/>
<path d="" fill="#FFFFFF" transform="translate(0,0)"/>
<path d="" fill="#0000FF" transform="translate(0,0)"/>
<path d="" fill="#FFFFFF" transform="translate(0,0)"/>
<path d="" fill="#FFFFFF" transform="translate(0,0)"/>
<path d="" fill="#808080" transform="translate(0,0)"/>
<path d="" fill="#FFFFFF" transform="translate(0,0)"/>
<path d="" fill="#FFFFFF" transform="translate(0,0)"/>
<path d="" fill="#FFFFFF" transform="translate(0,0)"/>
<path d="" fill="#FFFFFF" transform="translate(0,0)"/>
<path d="" fill="#FFFFFF" transform="translate(0,0)"/>
<path d="" fill="#808080" transform="translate(0,0)"/>
<path d="" fill="#808080" transform="translate(0,0)"/>
<path d="" fill="#FFFFFF" transform="translate(0,0)"/>
<path d="" fill="#FFFFFF" transform="translate(0,0)"/>
<path d="" fill="#FFFFFF" transform="translate(0,0)"/>
<path d="" fill="#FFFFFF" transform="translate(0,0)"/>
<path d="" fill="#FFFFFF" transform="translate(0,0)"/>
<path d="" fill="#FFFFFF" transform="translate(0,0)"/>
<path d="" fill="#FFFFFF" transform="translate(0,0)"/>
<path d="" fill="#FFFFFF" transform="translate(0,0)"/>
</svg>
